<svg xmlns="http://www.w3.org/2000/svg" xmlns:xlink="http://www.w3.org/1999/xlink" width="500" zoomAndPan="magnify" viewBox="0 0 375 374.999991" height="500" preserveAspectRatio="xMidYMid meet" version="1.0"><defs><clipPath id="9713ae4285"><path d="M 187.5 0 C 83.945312 0 0 83.945312 0 187.5 C 0 291.054688 83.945312 375 187.5 375 C 291.054688 375 375 291.054688 375 187.5 C 375 83.945312 291.054688 0 187.5 0 Z M 187.5 0 " clip-rule="nonzero"/></clipPath><clipPath id="c4c38f5853"><path d="M 273 26 L 363.640625 26 L 363.640625 141 L 273 141 Z M 273 26 " clip-rule="nonzero"/></clipPath><clipPath id="0a991a178b"><path d="M 127 358 L 186 358 L 186 368.289062 L 127 368.289062 Z M 127 358 " clip-rule="nonzero"/></clipPath></defs><g clip-path="url(#9713ae4285)"><rect x="-37.5" width="450" fill="#000000" y="-37.499999" height="449.999989" fill-opacity="1"/></g><path fill="#d9d9d9" d="M 336.058594 113.910156 C 326.105469 93.015625 311.40625 74.441406 293.695312 59.566406 C 275.351562 43.824219 253.417969 32.25 230.09375 25.828125 C 210.011719 20.269531 188.773438 18.824219 168.054688 21.371094 C 140.738281 24.554688 114.578125 35.433594 92.472656 51.695312 C 90.386719 53.199219 88.132812 54.589844 86.511719 56.613281 C 85.46875 57.367188 84.484375 58.175781 83.5 58.988281 C 65.851562 73.917969 51.148438 92.496094 41.253906 113.445312 C 29.449219 137.636719 23.890625 164.722656 24.933594 191.632812 C 25.398438 205.347656 27.480469 219.0625 31.589844 232.144531 C 38.417969 254.945312 50.917969 275.722656 66.542969 293.546875 C 71.289062 289.902344 75.226562 285.386719 78.8125 280.699219 C 85.875 272.597656 91.71875 263.277344 95.074219 253.035156 C 97.621094 245.164062 98.78125 236.890625 99.761719 228.671875 C 101.09375 215.882812 101.558594 202.800781 98.835938 190.183594 C 97.273438 183.472656 95.191406 176.875 93.222656 170.277344 C 91.949219 165.996094 89.289062 162.347656 87.261719 158.472656 C 83.386719 150.601562 81.300781 141.976562 80.550781 133.238281 C 79.335938 120.449219 80.316406 107.3125 84.949219 95.273438 C 87.148438 89.71875 90.214844 84.566406 93.28125 79.472656 C 95.769531 75.367188 97.910156 71.082031 100.804688 67.261719 C 104.683594 62.285156 109.195312 57.832031 114.117188 53.835938 C 115.910156 52.449219 117.761719 51 119.902344 50.015625 C 112.496094 55.285156 105.898438 61.824219 101.152344 69.578125 L 100.980469 69.519531 C 96.695312 77.042969 91.546875 84.105469 88.421875 92.265625 L 88.710938 92.613281 L 88.304688 92.324219 C 85.933594 99.671875 84.714844 107.425781 84.371094 115.125 C 86.277344 115.472656 88.015625 116.398438 89.867188 117.09375 C 90.5625 117.324219 91.199219 117.613281 91.835938 117.960938 C 89.113281 117.671875 86.800781 115.992188 84.136719 115.472656 C 84.253906 124.671875 83.847656 133.992188 85.585938 143.078125 C 86.800781 149.617188 89.347656 155.867188 92.761719 161.597656 C 95.25 166.050781 98.316406 170.277344 100.167969 175.082031 C 101.269531 177.742188 101.960938 180.519531 103.121094 183.125 C 104.160156 185.613281 106.070312 187.582031 107.980469 189.433594 C 109.949219 191.457031 111.917969 193.542969 113.828125 195.625 C 116.082031 198.230469 118.28125 201.355469 118.109375 204.941406 C 118.398438 208.300781 116.777344 212.351562 113.132812 213.160156 C 112.4375 213.160156 111.742188 213.160156 110.992188 213.21875 C 110.238281 217.789062 109.542969 222.421875 108.734375 226.992188 C 106.476562 239.320312 102.597656 251.414062 96.40625 262.351562 C 94.265625 266.171875 92.007812 269.875 89.925781 273.753906 C 90.910156 273.753906 91.835938 273.925781 92.761719 274.160156 C 91.777344 274.101562 90.792969 274.042969 89.808594 273.984375 C 86.511719 277.804688 82.980469 281.394531 79.566406 285.097656 C 82.632812 288.683594 84.832031 293.082031 85.699219 297.714844 C 86.394531 301.242188 86.222656 304.832031 86.046875 308.363281 C 89.867188 308.304688 93.6875 308.246094 97.507812 308.59375 C 97.5625 312.527344 97.507812 316.464844 97.679688 320.398438 C 106.941406 326.648438 116.605469 332.378906 126.90625 336.777344 C 129.164062 334.117188 131.074219 330.933594 134.3125 329.429688 C 136.859375 328.097656 139.753906 328.269531 142.53125 328.210938 C 146.757812 328.210938 150.921875 328.210938 155.089844 328.269531 C 155.378906 325.203125 156.59375 322.136719 159.027344 320.109375 C 162.902344 316.578125 168.691406 316.8125 173.492188 317.796875 C 173.203125 313.800781 173.78125 309.75 175.34375 306.046875 C 176.792969 302.460938 179.511719 299.332031 183.042969 297.714844 C 183.042969 297.308594 183.101562 296.441406 183.101562 296.035156 C 183.621094 295.167969 184.835938 295.628906 185.648438 295.515625 C 185.820312 295.863281 186.167969 296.554688 186.285156 296.902344 C 187.152344 296.84375 188.019531 296.789062 188.886719 296.789062 C 188.773438 293.429688 188.773438 290.015625 188.828125 286.660156 C 189.234375 280.121094 193.863281 274.273438 199.769531 271.785156 C 204.167969 270.050781 208.96875 270.976562 213.542969 271.496094 C 221.46875 272.421875 229.457031 272.886719 237.386719 273.695312 C 240.394531 273.984375 243.578125 273.753906 246.414062 272.710938 C 246.992188 272.480469 248.09375 271.785156 247.339844 271.09375 C 245.894531 269.414062 243.984375 268.199219 242.652344 266.402344 C 239.757812 263.164062 238.773438 258.535156 239.527344 254.308594 C 240.277344 251.761719 242.765625 250.375 245.140625 249.621094 C 250.636719 248.058594 256.542969 247.015625 262.210938 248.175781 C 263.253906 245.742188 265.570312 244.296875 267.828125 243.082031 C 263.660156 240.535156 258.683594 240.070312 254.054688 238.796875 C 252.433594 238.277344 250.753906 237.582031 249.597656 236.253906 C 248.726562 235.210938 249.019531 233.820312 248.902344 232.605469 C 251.390625 230.753906 254.515625 230.347656 257.46875 229.828125 C 261.75 229.191406 265.976562 228.613281 270.257812 228.265625 C 268.289062 226.703125 266.667969 224.734375 265.628906 222.421875 C 260.417969 225.082031 254.632812 226.472656 248.84375 227.109375 C 249.019531 226.414062 249.191406 225.71875 249.363281 225.082031 C 248.785156 221.496094 244.851562 220.046875 241.785156 219.46875 L 241.261719 219.527344 L 241.320312 219.351562 C 238.890625 218.601562 236.34375 218.253906 233.796875 217.964844 C 233.507812 208.53125 232.699219 198.171875 226.449219 190.589844 C 222.164062 185.152344 214.640625 184.976562 208.332031 184.570312 C 206.132812 184.6875 204.628906 182.371094 204.628906 180.40625 C 204.6875 178.4375 206.886719 177.28125 206.769531 175.195312 C 206.132812 174.964844 205.496094 174.734375 204.859375 174.503906 C 204.6875 167.789062 204.6875 161.074219 204.746094 154.421875 C 207.058594 154.128906 209.605469 153.839844 211.746094 155.058594 C 219.617188 158.585938 225.984375 165.707031 234.898438 166.632812 C 235.824219 166.921875 236.402344 165.9375 237.152344 165.589844 C 233.625 164.375 229.226562 162.925781 228.355469 158.820312 C 231.078125 158.472656 233.796875 159.050781 236.226562 160.265625 C 236.113281 159.109375 236.054688 157.949219 236.113281 156.792969 C 236.574219 156.675781 237.558594 156.503906 238.023438 156.386719 C 238.078125 156.792969 238.195312 157.546875 238.253906 157.890625 C 238.425781 161.886719 243.578125 162.636719 246.472656 161.363281 C 246.992188 159.800781 247.457031 158.238281 247.917969 156.675781 C 248.09375 155.75 248.382812 154.074219 246.992188 153.957031 C 245.023438 153.898438 243.058594 153.898438 241.148438 154.304688 C 243.984375 152.222656 247.6875 151.929688 251.101562 151.699219 C 253.648438 151.585938 254.980469 154.476562 254.398438 156.675781 C 253.300781 154.941406 251.679688 151.875 249.25 153.203125 C 249.480469 154.535156 249.710938 155.925781 249.945312 157.257812 C 250.925781 157.660156 251.96875 158.414062 253.070312 158.414062 C 254.457031 160.035156 255.617188 161.828125 257.46875 162.925781 L 257.757812 162.984375 C 259.550781 164.722656 261.054688 166.863281 261.34375 169.410156 C 261.980469 173.054688 260.246094 176.585938 257.988281 179.363281 L 257.699219 179.480469 C 256.253906 180.753906 254.398438 181.910156 254.167969 183.992188 C 253.53125 188.449219 253.707031 193.019531 254.167969 197.535156 L 254.398438 197.1875 C 254.226562 198.691406 254.921875 200.199219 255.441406 201.585938 C 256.773438 204.710938 260.246094 206.503906 263.542969 206.621094 C 266.554688 206.796875 269.5625 207.375 272.570312 207.664062 C 273.554688 207.894531 274.132812 206.910156 274.828125 206.390625 C 276.449219 204.710938 278.9375 204.539062 281.023438 203.902344 C 277.144531 200.488281 271.589844 200.023438 266.667969 200.777344 C 264.238281 201.125 262.097656 202.511719 259.78125 203.207031 C 259.839844 202.164062 259.492188 200.835938 260.648438 200.3125 C 264.410156 198.171875 269.101562 198.75 273.152344 199.5625 C 276.625 200.199219 279.691406 202.050781 282.640625 203.902344 C 285.421875 203.960938 289.585938 201.816406 288.140625 198.460938 C 285.941406 197.59375 283.800781 196.550781 281.660156 195.566406 C 280.789062 194.527344 279.632812 193.714844 278.996094 192.5 C 278.53125 190.300781 278.878906 187.929688 279.863281 185.960938 C 280.210938 185.09375 280.847656 184.226562 280.386719 183.296875 C 279.402344 180.519531 278.242188 177.859375 277.203125 175.136719 C 275.292969 170.105469 272.339844 165.53125 270.429688 160.4375 C 269.390625 157.890625 268.753906 155.230469 268.058594 152.566406 C 267.074219 148.226562 264.703125 143.828125 260.359375 142.152344 C 256.367188 140.820312 252.144531 140.414062 247.976562 139.605469 C 249.019531 138.792969 250.464844 139.199219 251.738281 138.96875 C 248.726562 137.695312 245.371094 137.8125 242.132812 137.347656 C 239.527344 136.652344 236.75 136.363281 234.085938 136.710938 C 225.8125 136.421875 217.535156 136.421875 209.257812 136.480469 C 209.203125 130.691406 209.144531 124.960938 209.144531 119.175781 C 207.234375 119.175781 205.324219 119.117188 203.414062 119.117188 C 200.636719 119.234375 197.859375 119.117188 195.023438 118.945312 C 194.964844 115.644531 195.3125 112.347656 194.675781 109.105469 C 193.285156 109.222656 191.898438 109.222656 190.507812 109.046875 C 190.507812 110.378906 190.449219 111.710938 190.449219 113.039062 C 190.101562 113.097656 189.410156 113.15625 189.0625 113.214844 C 188.886719 111.769531 188.773438 110.378906 188.539062 108.988281 C 188.136719 108.988281 187.324219 109.046875 186.921875 109.046875 C 183.851562 106.734375 181.074219 103.664062 180.4375 99.789062 C 181.304688 99.902344 182.695312 99.554688 182.925781 100.773438 C 184.027344 103.722656 185.703125 106.90625 188.945312 107.890625 C 189.121094 104.882812 187.210938 102.277344 187.558594 99.265625 C 188.425781 99.324219 189.351562 99.324219 190.21875 99.382812 C 190.21875 99.671875 190.21875 100.191406 190.21875 100.484375 C 190.335938 102.914062 190.277344 105.34375 190.277344 107.832031 C 191.78125 107.832031 193.34375 107.890625 194.847656 107.949219 C 194.964844 105.113281 194.964844 102.277344 195.023438 99.441406 C 195.195312 99.441406 195.660156 99.441406 195.832031 99.441406 C 195.773438 102.277344 195.601562 105.113281 195.773438 107.949219 C 197.046875 107.890625 198.378906 107.890625 199.652344 107.832031 C 199.652344 102.21875 199.652344 96.605469 199.710938 91.050781 C 199.710938 89.140625 199.769531 87.171875 199.710938 85.261719 C 199.535156 85.144531 199.132812 84.855469 198.957031 84.742188 C 198.957031 87.289062 197.28125 90.816406 194.210938 90.644531 C 191.261719 90.816406 188.773438 87.867188 189.351562 84.972656 C 187.382812 85.550781 185.359375 85.378906 183.332031 85.378906 C 179.050781 85.492188 174.824219 85.550781 170.542969 85.4375 C 170.425781 75.191406 170.601562 64.949219 170.484375 54.761719 C 170.367188 48.746094 170.832031 42.667969 170.195312 36.648438 C 170.078125 36.242188 169.90625 35.375 169.789062 34.96875 C 170.773438 35.085938 171.757812 35.203125 172.800781 35.257812 C 172.453125 35.78125 172.046875 36.359375 171.699219 36.878906 C 172.277344 37.167969 172.914062 37.457031 173.492188 37.691406 C 172.914062 37.632812 172.335938 37.632812 171.757812 37.574219 C 171.582031 40.121094 171.46875 42.667969 171.875 45.15625 C 172.335938 48.339844 172.164062 51.523438 172.21875 54.761719 C 172.335938 64.371094 172.21875 74.035156 172.277344 83.640625 C 176.964844 83.582031 181.597656 83.816406 186.285156 83.757812 C 187.441406 83.757812 188.539062 83.757812 189.699219 83.757812 C 190.625 81.90625 192.589844 80.574219 194.734375 81.09375 C 196.757812 81.09375 197.625 83.0625 198.898438 84.277344 C 200.808594 84.625 202.71875 84.164062 204.628906 84.046875 C 203.296875 84.742188 201.734375 84.625 200.289062 84.683594 C 200.984375 92.4375 200.117188 100.308594 200.75 108.0625 C 201.910156 108.121094 203.007812 108.296875 204.167969 108.351562 C 205.148438 105.808594 207.753906 104.300781 210.417969 104.765625 L 210.589844 104.882812 C 211.921875 105.515625 213.136719 106.558594 213.65625 108.0625 L 214.0625 108.0625 L 213.945312 108.585938 C 219.734375 108.699219 225.519531 108.699219 231.308594 108.410156 C 231.367188 106.964844 231.367188 105.460938 231.480469 104.011719 C 233.335938 104.246094 235.878906 104.824219 236.632812 102.449219 C 235.765625 102.21875 234.953125 101.988281 234.085938 101.699219 C 235.1875 101.699219 236.980469 102.390625 237.039062 100.539062 C 235.707031 100.65625 234.375 100.828125 233.042969 100.714844 C 234.375 100.539062 235.765625 100.367188 237.097656 100.078125 C 236.921875 98.863281 236.980469 97.53125 236.285156 96.488281 C 235.011719 95.621094 233.390625 95.910156 231.945312 95.851562 C 232.117188 87.867188 231.828125 79.878906 232.003906 71.894531 C 240.683594 71.71875 249.363281 71.605469 257.988281 71.71875 C 258.394531 71.257812 258.742188 70.851562 259.144531 70.445312 C 259.433594 69.808594 259.667969 69.171875 259.957031 68.535156 C 258.046875 66.394531 257.0625 63.558594 255.152344 61.417969 C 251.96875 61.476562 248.84375 61.59375 245.71875 61.300781 C 245.601562 61.648438 245.3125 62.34375 245.199219 62.691406 C 244.792969 62.691406 243.984375 62.691406 243.578125 62.691406 C 244.039062 62.285156 244.332031 61.765625 244.445312 61.1875 L 244.734375 61.359375 C 244.734375 60.609375 244.792969 59.796875 244.910156 58.988281 C 245.199219 59.507812 245.660156 60.492188 245.949219 61.011719 C 249.074219 61.359375 252.199219 60.839844 255.324219 60.898438 C 257.871094 62.519531 258.21875 66.335938 261.054688 67.667969 C 262.328125 67.898438 263.660156 67.785156 264.933594 67.726562 C 260.59375 60.027344 253.417969 54.300781 245.894531 49.4375 C 241.667969 46.542969 236.75 45.097656 232.117188 43.074219 C 229.746094 41.972656 227.199219 41.277344 224.769531 40.238281 C 224.074219 39.890625 224.015625 40.988281 223.785156 41.335938 C 224.710938 41.394531 225.925781 41.164062 226.621094 42.03125 C 225.347656 42.03125 224.015625 41.914062 222.742188 41.914062 C 223.03125 41.394531 223.265625 40.929688 223.496094 40.410156 C 223.4375 39.65625 222.394531 39.65625 221.875 39.425781 C 215.453125 37.691406 208.910156 36.417969 202.257812 35.492188 C 189.523438 33.988281 176.675781 33.40625 163.886719 34.21875 C 164.117188 37.285156 164.003906 40.351562 163.945312 43.417969 C 163.945312 57.886719 163.945312 72.414062 163.945312 86.882812 C 157.578125 86.882812 151.15625 86.882812 144.789062 86.882812 C 144.847656 97.648438 144.5 108.410156 144.558594 119.234375 C 144.441406 124.324219 144.671875 129.417969 144.382812 134.511719 C 143.226562 134.105469 143.457031 132.890625 143.457031 131.964844 C 143.632812 123.457031 143.398438 115.007812 143.804688 106.5 C 143.921875 84.164062 143.804688 61.824219 144.035156 39.542969 C 144.210938 39.542969 144.441406 39.542969 144.613281 39.601562 C 144.671875 55.167969 144.789062 70.679688 144.90625 86.246094 C 151.039062 86.128906 157.171875 86.128906 163.308594 86.1875 C 163.421875 79.183594 163.25 72.183594 163.421875 65.179688 C 163.25 65.007812 162.902344 64.71875 162.730469 64.542969 L 163.480469 65.121094 C 163.539062 56.730469 163.308594 48.398438 163.65625 40.003906 C 163.714844 38.328125 163.714844 36.648438 163.367188 34.96875 L 163.714844 34.566406 C 160.644531 34.21875 157.578125 35.375 154.570312 35.144531 C 160.589844 33.003906 166.953125 32.25 173.320312 32.078125 C 184.488281 31.84375 195.832031 31.730469 206.828125 34.160156 C 212.328125 35.203125 217.882812 36.300781 223.148438 38.269531 C 234.433594 42.148438 245.71875 46.71875 255.269531 54.070312 C 268.808594 65.46875 278.417969 81.210938 283.453125 98.050781 C 286.289062 98.339844 289.125 97.9375 291.960938 98.167969 C 296.820312 103.203125 301.855469 108.121094 306.71875 113.15625 C 307.46875 114.140625 308.800781 114.140625 309.898438 114.488281 C 308.859375 114.429688 307.527344 114.71875 306.773438 113.734375 C 301.914062 108.640625 296.648438 103.953125 292.015625 98.628906 C 289.183594 98.515625 286.347656 98.628906 283.511719 98.746094 C 286 110.4375 286.75 122.472656 289.816406 134.046875 C 290.917969 137.808594 289.527344 141.746094 287.15625 144.699219 C 285.941406 146.492188 283.972656 147.765625 283.394531 149.90625 C 283.566406 150.253906 283.914062 151.003906 284.089844 151.351562 C 286.171875 151.585938 288.253906 151.0625 290.28125 150.484375 C 289.183594 154.074219 284.898438 153.492188 281.949219 153.320312 C 280.210938 155.925781 280.964844 159.28125 279.632812 162 C 282.929688 170.394531 287.15625 178.496094 292.421875 185.84375 C 293.871094 188.101562 295.664062 190.128906 296.589844 192.675781 C 297.746094 196.089844 296.070312 200.023438 293.117188 201.933594 C 290.164062 203.84375 286.691406 204.769531 283.222656 205 C 281.425781 205.234375 279.113281 205.40625 278.242188 207.257812 C 276.796875 211.25 277.433594 215.9375 280.09375 219.296875 C 279.226562 221.667969 278.1875 223.925781 276.96875 226.183594 C 275.640625 228.613281 272.6875 229.308594 270.605469 230.871094 C 271.414062 232.144531 272.804688 232.835938 273.789062 233.9375 C 274.828125 235.847656 274.132812 238.164062 273.382812 240.070312 C 271.933594 243.488281 267.652344 244.414062 266.207031 247.886719 C 264.296875 251.820312 265.628906 256.277344 265.105469 260.441406 C 264.355469 264.898438 262.386719 269.585938 258.507812 272.132812 C 255.152344 274.21875 251.160156 274.910156 247.339844 275.546875 C 236.34375 277.457031 225.40625 273.871094 214.351562 274.273438 C 211.980469 274.390625 210.070312 276.070312 208.679688 277.804688 C 206.074219 281.105469 204.339844 284.921875 202.777344 288.742188 C 198.378906 299.855469 195.136719 311.371094 191.78125 322.886719 C 198.550781 331.28125 206.421875 338.6875 213.773438 346.617188 C 218.867188 345.691406 223.902344 344.648438 228.9375 343.257812 C 261.519531 334.636719 290.917969 315.421875 312.96875 290.074219 C 325.46875 275.894531 335.421875 259.460938 342.078125 241.75 C 349.601562 222.304688 352.898438 201.296875 352.4375 180.460938 C 351.742188 157.546875 346.246094 134.628906 336.058594 113.910156 Z M 27.421875 209.628906 C 26.902344 208.242188 26.84375 206.738281 26.785156 205.289062 C 27.941406 205.175781 29.273438 205.464844 29.910156 206.5625 C 30.953125 208.066406 28.984375 210.324219 27.421875 209.628906 Z M 43.335938 132.949219 C 41.660156 132.082031 41.601562 129.476562 43.335938 128.667969 C 44.609375 127.972656 46.460938 128.433594 46.867188 129.941406 C 47.734375 131.964844 45.1875 134.164062 43.335938 132.949219 Z M 93.628906 270.109375 C 94.382812 269.296875 95.191406 268.488281 95.945312 267.621094 C 96.117188 267.734375 96.523438 267.964844 96.695312 268.082031 C 96.695312 268.488281 96.695312 269.296875 96.695312 269.703125 C 95.710938 269.875 94.671875 269.992188 93.628906 270.109375 Z M 236.980469 144.753906 C 242.765625 142.730469 249.597656 142.035156 255.152344 144.988281 C 257.351562 145.914062 256.714844 148.574219 256.542969 150.484375 C 249.769531 149.269531 242.824219 150.601562 236.460938 153.03125 C 236.054688 150.367188 235.535156 147.300781 236.980469 144.753906 Z M 208.679688 86.59375 C 206.539062 87.113281 206.019531 85.089844 206.308594 83.46875 C 207.058594 83.292969 207.871094 83.179688 208.621094 83.0625 C 208.96875 83.351562 209.375 83.640625 209.78125 83.929688 C 209.78125 84.394531 209.78125 85.261719 209.78125 85.667969 C 209.492188 85.898438 208.96875 86.363281 208.679688 86.59375 Z M 215.625 85.78125 C 214.582031 86.765625 213.367188 87.113281 212.152344 86.1875 C 211.863281 85.320312 211.804688 84.453125 212.210938 83.582031 C 212.789062 83.351562 213.367188 83.121094 213.890625 82.945312 C 215.046875 83.46875 215.855469 84.394531 215.625 85.78125 Z M 217.59375 85.378906 C 216.78125 84.277344 218.171875 83.179688 219.15625 83.003906 C 220.890625 82.601562 221.757812 85.726562 220.140625 86.476562 C 219.269531 87.230469 217.941406 86.304688 217.59375 85.378906 Z M 246.355469 52.621094 C 246.355469 53.433594 246.355469 54.242188 246.296875 55.050781 C 245.488281 55.050781 244.734375 54.996094 243.925781 54.996094 C 243.925781 54.183594 243.867188 53.433594 243.867188 52.621094 C 244.734375 52.503906 245.546875 52.503906 246.355469 52.621094 Z M 244.964844 59.160156 C 245.023438 59.796875 244.851562 60.375 244.503906 60.898438 C 244.273438 60.78125 243.808594 60.609375 243.636719 60.492188 C 243.75 59.914062 244.273438 59.101562 244.964844 59.160156 Z M 238.773438 51.984375 C 238.601562 52.679688 238.3125 54.011719 238.195312 54.703125 C 239.0625 54.125 239.121094 53.140625 238.890625 52.214844 L 239.988281 52.621094 C 239.410156 53.488281 239.410156 54.300781 239.988281 55.109375 C 239.121094 55.515625 238.195312 55.226562 237.269531 54.996094 C 237.386719 54.761719 237.617188 54.242188 237.734375 54.011719 C 237.558594 53.777344 237.210938 53.316406 237.097656 53.027344 C 237.5 52.738281 238.371094 52.214844 238.773438 51.984375 Z M 238.890625 58.757812 C 239.179688 59.277344 239.46875 59.796875 239.757812 60.320312 C 239.757812 61.070312 239.757812 61.882812 239.816406 62.691406 C 238.949219 62.632812 238.136719 62.574219 237.328125 62.519531 C 237.675781 61.765625 238.371094 61.59375 239.351562 61.996094 L 239.527344 61.476562 C 238.601562 61.417969 237.734375 61.128906 236.921875 60.609375 C 237.734375 60.085938 238.136719 59.21875 238.890625 58.757812 Z M 231.773438 52.273438 C 232.929688 51.636719 233.738281 53.199219 233.566406 54.183594 C 232.988281 53.953125 232.410156 53.722656 231.828125 53.488281 C 231.828125 53.605469 231.886719 53.894531 231.945312 54.011719 C 232.753906 54.011719 233.390625 54.300781 233.796875 54.996094 C 232.8125 54.996094 231.886719 54.9375 230.960938 54.878906 C 231.136719 54.070312 230.730469 52.796875 231.773438 52.273438 Z M 231.886719 59.394531 C 231.945312 58.929688 232.003906 58.410156 232.0625 57.945312 C 231.945312 59.046875 232.117188 59.914062 233.449219 59.738281 C 233.390625 60.839844 233.738281 62.226562 232.234375 62.460938 C 232.175781 62.171875 232.003906 61.535156 231.886719 61.246094 L 231.945312 62.402344 C 231.65625 62.285156 231.136719 61.996094 230.902344 61.882812 C 231.019531 60.898438 230.613281 59.855469 231.886719 59.394531 Z M 228.648438 104.070312 C 227.777344 104.9375 226.503906 105.226562 225.40625 105.574219 C 223.613281 105.113281 221.46875 104.417969 220.890625 102.449219 C 219.964844 99.902344 221.46875 97.53125 222.917969 95.5625 C 225 94.867188 226.738281 96.257812 228.300781 97.414062 C 230.5 98.804688 230.554688 102.390625 228.648438 104.070312 Z M 226.503906 52.160156 C 226.503906 52.503906 226.5625 53.140625 226.5625 53.488281 L 225.578125 54.011719 C 225.578125 53.605469 225.519531 52.796875 225.519531 52.390625 C 225.289062 52.96875 225 53.546875 224.769531 54.125 C 225.578125 54.242188 226.449219 54.359375 227.257812 54.472656 C 227.027344 54.589844 226.503906 54.878906 226.273438 54.996094 C 226.214844 55.457031 226.101562 56.382812 226.042969 56.902344 C 225.578125 56.441406 225.8125 55.6875 225.519531 55.167969 C 225.058594 55.050781 224.191406 54.878906 223.785156 54.761719 C 223.902344 53.375 224.769531 51.464844 226.503906 52.160156 Z M 216.261719 54.703125 C 217.824219 54.011719 219.675781 54.242188 221.179688 54.878906 C 219.445312 54.996094 217.707031 54.9375 216.03125 54.9375 C 216.089844 54.820312 216.203125 54.761719 216.261719 54.703125 Z M 215.566406 48.511719 C 215.972656 47.816406 216.203125 46.777344 217.246094 46.949219 C 217.476562 47.472656 217.824219 48.109375 217.417969 48.6875 C 217.128906 49.613281 215.972656 48.859375 215.566406 48.511719 Z M 215.21875 40.875 C 216.957031 40.929688 218.632812 40.929688 220.3125 41.453125 C 218.632812 41.972656 216.839844 41.972656 215.105469 41.972656 C 215.105469 41.742188 215.164062 41.164062 215.21875 40.875 Z M 213.078125 55.398438 C 212.90625 55.226562 212.617188 54.878906 212.441406 54.703125 C 211.402344 53.664062 210.707031 56.210938 210.070312 54.9375 C 209.835938 52.621094 210.070312 50.25 209.78125 47.875 C 210.878906 47.933594 211.980469 48.050781 213.136719 48.164062 C 213.253906 50.597656 213.195312 53.027344 213.078125 55.398438 Z M 211.167969 39.890625 C 211.167969 41.046875 211.226562 42.203125 211.285156 43.363281 C 211.054688 43.363281 210.707031 43.363281 210.472656 43.363281 C 210.589844 42.550781 210.707031 41.742188 210.765625 40.929688 C 210.128906 40.292969 209.316406 39.832031 209.203125 38.90625 C 209.894531 39.253906 210.53125 39.542969 211.167969 39.890625 Z M 195.890625 46.890625 C 196.699219 46.890625 197.453125 46.890625 198.261719 46.890625 C 198.261719 47.355469 198.207031 48.222656 198.207031 48.6875 C 197.859375 49.613281 196.46875 49.089844 195.71875 49.324219 C 195.71875 48.511719 195.773438 47.703125 195.890625 46.890625 Z M 198.207031 54.996094 C 198.207031 55.746094 198.148438 56.558594 198.148438 57.308594 C 197.335938 57.367188 196.585938 57.425781 195.773438 57.484375 C 195.71875 56.671875 195.71875 55.863281 195.773438 54.996094 C 196.585938 54.996094 197.394531 54.996094 198.207031 54.996094 Z M 190.390625 47.007812 C 191.664062 47.179688 192.011719 48.28125 192.128906 49.4375 C 191.261719 49.324219 190.449219 49.207031 189.640625 49.089844 C 189.871094 48.339844 190.101562 47.644531 190.390625 47.007812 Z M 192.011719 57.425781 C 191.492188 57.425781 190.507812 57.425781 190.046875 57.367188 C 189.929688 56.613281 189.929688 55.863281 190.101562 55.109375 C 190.566406 55.109375 191.550781 55.109375 192.011719 55.167969 C 192.011719 55.921875 192.011719 56.671875 192.011719 57.425781 Z M 185.472656 47.007812 C 186.285156 47.355469 186.109375 48.398438 186.339844 49.089844 C 185.53125 49.265625 184.664062 49.554688 183.910156 49.089844 C 183.390625 48.050781 184.375 46.835938 185.472656 47.007812 Z M 177.835938 64.542969 C 181.886719 64.082031 185.9375 64.542969 189.929688 64.660156 C 190.046875 66.511719 190.160156 68.363281 190.21875 70.214844 C 192.359375 70.214844 194.445312 70.214844 196.585938 70.273438 C 198.898438 68.480469 200.578125 66.105469 202.660156 64.082031 C 204.109375 62.460938 205.902344 61.070312 207.234375 59.335938 C 207.582031 54.070312 207.40625 48.742188 207.234375 43.476562 C 206.074219 42.839844 204.628906 43.1875 203.355469 42.898438 C 203.472656 41.683594 203.585938 40.410156 203.933594 39.253906 C 205.148438 39.253906 206.367188 39.3125 207.523438 39.425781 C 207.695312 40.121094 207.871094 40.816406 207.871094 41.566406 C 208.042969 47.703125 207.8125 53.835938 208.042969 59.972656 C 209.203125 59.972656 210.472656 60.375 211.574219 59.855469 C 213.425781 58.523438 214.292969 56.265625 215.972656 54.820312 C 215.972656 56.789062 216.089844 58.8125 216.433594 60.78125 C 219.039062 60.957031 221.644531 61.070312 224.25 61.1875 C 224.421875 60.433594 224.59375 59.738281 224.828125 58.988281 C 225.230469 58.988281 226.042969 58.988281 226.449219 58.988281 C 226.5625 59.21875 226.851562 59.738281 226.96875 59.972656 C 226.851562 60.664062 226.792969 61.300781 226.679688 61.996094 C 225.8125 61.882812 224.941406 61.765625 224.132812 61.59375 C 220.660156 60.722656 217.015625 61.1875 213.484375 60.957031 C 214.003906 60.144531 214.46875 59.277344 214.871094 58.410156 C 213.195312 59.625 211.691406 61.128906 210.183594 62.574219 C 209.546875 63.15625 208.96875 63.675781 208.332031 64.253906 C 208.101562 64.3125 207.523438 64.371094 207.292969 64.371094 C 208.273438 63.15625 209.257812 61.996094 210.183594 60.722656 C 209.316406 60.722656 208.507812 60.78125 207.695312 60.78125 C 204.109375 63.964844 200.984375 67.667969 197.394531 70.851562 C 194.847656 70.679688 192.246094 70.792969 189.699219 70.621094 C 189.699219 68.769531 189.640625 66.859375 189.582031 65.007812 C 185.472656 64.601562 181.304688 64.71875 177.199219 64.601562 C 177.371094 64.660156 177.660156 64.601562 177.835938 64.542969 Z M 94.613281 95.15625 C 92.296875 94.464844 89.289062 91.976562 90.445312 89.253906 C 91.140625 87.171875 93.28125 85.492188 95.539062 86.015625 C 97.390625 86.476562 98.375 88.269531 99.472656 89.601562 L 100.054688 89.3125 C 104.046875 89.488281 108.039062 89.488281 112.03125 89.082031 C 112.207031 85.089844 112.148438 81.039062 112.089844 77.042969 C 116.082031 76.8125 120.078125 77.042969 124.011719 76.929688 C 124.476562 74.148438 123.316406 70.96875 124.765625 68.535156 C 124.707031 71.605469 124.589844 74.671875 124.765625 77.738281 C 120.828125 77.855469 116.894531 77.855469 112.902344 77.738281 C 112.902344 81.441406 112.902344 85.144531 112.84375 88.851562 C 118.628906 89.140625 124.417969 88.792969 130.203125 89.140625 C 129.800781 90.296875 128.46875 90.007812 127.542969 90.066406 C 122.160156 90.007812 116.777344 89.949219 111.394531 89.832031 C 107.402344 89.429688 103.410156 90.238281 99.359375 90.238281 L 99.300781 90.816406 C 99.125 93.132812 96.871094 94.695312 94.613281 95.15625 Z M 138.015625 182.316406 C 138.421875 183.472656 138.597656 184.6875 138.597656 185.84375 C 137.089844 186.480469 134.546875 186.65625 134.082031 184.628906 C 134.199219 182.546875 136.398438 182.082031 138.015625 182.316406 Z M 134.546875 175.429688 C 135.875 175.371094 137.207031 175.371094 138.480469 175.484375 C 138.480469 176.585938 138.539062 177.742188 138.539062 178.84375 C 137.382812 178.84375 136.222656 178.957031 135.066406 178.785156 C 133.910156 178.089844 134.546875 176.527344 134.546875 175.429688 Z M 137.726562 171.609375 C 135.933594 173.054688 133.328125 169.871094 135.007812 168.367188 C 135.992188 167.558594 137.382812 167.558594 138.597656 167.90625 C 138.886719 169.121094 139.058594 170.796875 137.726562 171.609375 Z M 137.785156 164.085938 C 136.917969 164.722656 135.992188 164.027344 135.125 163.796875 C 134.546875 162.523438 134.660156 160.726562 136.164062 160.207031 C 137.148438 159.570312 138.25 160.4375 138.769531 161.25 C 139.582031 162.175781 138.652344 163.5625 137.785156 164.085938 Z M 138.710938 156.386719 C 136.917969 158.820312 133.445312 154.710938 135.992188 153.203125 C 138.074219 151.46875 140.449219 154.59375 138.710938 156.386719 Z M 139.175781 148.804688 C 138.421875 150.078125 136.859375 149.847656 135.703125 149.328125 C 135.472656 148.574219 135.125 147.878906 135.125 147.128906 C 135.527344 145.96875 136.800781 145.21875 137.960938 145.390625 C 139.464844 145.738281 139.40625 147.589844 139.175781 148.804688 Z M 130.609375 137.695312 C 127.949219 135.496094 129.277344 130.808594 132.578125 130.054688 C 135.296875 129.1875 138.363281 131.503906 138.363281 134.339844 C 138.597656 138.214844 133.214844 140.53125 130.609375 137.695312 Z M 125.574219 123.632812 C 125.515625 122.589844 125.515625 121.546875 125.460938 120.507812 C 125.804688 120.507812 126.558594 120.621094 126.90625 120.621094 C 127.542969 121.953125 127.484375 123.398438 127.484375 124.789062 C 126.5 125.832031 125.054688 127.335938 123.550781 126.234375 C 121.8125 125.253906 121.988281 123.226562 121.929688 121.546875 C 122.738281 121.085938 123.550781 120.679688 124.417969 120.5625 C 124.1875 121.546875 123.953125 122.53125 123.722656 123.515625 C 124.359375 123.632812 124.9375 123.632812 125.574219 123.632812 Z M 114.230469 133.703125 C 111.511719 134.800781 108.269531 132.777344 107.808594 129.941406 C 105.261719 129.941406 102.773438 129.996094 100.226562 130.113281 C 100.285156 123.921875 100.054688 117.671875 100.34375 111.476562 C 101.09375 107.023438 100.054688 102.390625 100.980469 97.9375 C 100.632812 101.753906 100.921875 105.574219 100.804688 109.453125 C 101.09375 115.933594 100.804688 122.472656 100.980469 128.957031 C 103.179688 128.957031 105.320312 129.015625 107.519531 129.304688 C 107.980469 127.394531 108.964844 125.308594 111.046875 124.730469 C 113.882812 123.746094 116.894531 126.234375 117.125 129.070312 C 116.953125 130.921875 115.679688 132.601562 114.230469 133.703125 Z M 114.925781 140.300781 C 114.117188 140.300781 113.304688 140.300781 112.496094 140.242188 C 112.378906 138.792969 112.378906 137.347656 112.4375 135.902344 C 113.246094 135.84375 114.058594 135.84375 114.808594 135.902344 C 115.042969 137.40625 115.042969 138.851562 114.925781 140.300781 Z M 112.207031 101.753906 C 112.320312 99.324219 112.265625 96.894531 112.378906 94.464844 C 112.496094 94.578125 112.785156 94.8125 112.902344 94.984375 C 113.246094 97.414062 113.074219 99.902344 113.015625 102.390625 C 112.785156 102.21875 112.4375 101.929688 112.207031 101.753906 Z M 124.765625 238.046875 C 123.433594 238.046875 122.042969 238.046875 120.714844 237.988281 C 120.308594 226.007812 120.886719 213.972656 120.597656 201.992188 C 120.539062 200.660156 120.191406 199.273438 119.152344 198.34375 C 115.332031 194.699219 112.089844 190.589844 108.675781 186.597656 C 103.46875 180.230469 101.09375 171.957031 100.457031 163.851562 C 100.226562 159.050781 98.722656 154.363281 99.242188 149.5 C 99.300781 149.441406 99.472656 149.210938 99.589844 149.152344 C 101.382812 147.417969 103.292969 145.738281 104.972656 143.945312 C 106.015625 142.902344 106.996094 141.804688 108.039062 140.761719 C 111.628906 140.820312 115.214844 140.589844 118.804688 140.820312 C 121.640625 143.828125 124.648438 146.605469 127.542969 149.5 C 127.542969 152.335938 127.542969 155.113281 127.542969 157.949219 C 127.136719 157.949219 126.269531 157.949219 125.863281 158.007812 C 125.804688 155.347656 125.804688 152.742188 125.863281 150.078125 C 123.027344 147.878906 121.003906 144.753906 118.109375 142.730469 C 115.792969 142.09375 113.246094 142.613281 110.875 142.382812 C 108.386719 141.746094 106.941406 144.0625 105.378906 145.566406 C 103.929688 147.1875 102.019531 148.402344 100.746094 150.136719 C 100.398438 152.164062 100.691406 154.304688 100.691406 156.386719 C 101.09375 155.289062 101.441406 154.1875 101.847656 153.089844 C 102.195312 153.03125 102.890625 152.972656 103.234375 152.972656 C 103.292969 153.320312 103.351562 153.898438 103.410156 154.246094 C 103.121094 154.246094 102.484375 154.246094 102.195312 154.246094 C 102.484375 154.304688 103.0625 154.363281 103.351562 154.363281 C 102.890625 155.925781 102.078125 157.429688 102.253906 159.109375 C 102.65625 164.488281 103.410156 169.929688 105.722656 174.847656 C 107.113281 177.800781 108.097656 181.042969 110.296875 183.53125 C 114 188.101562 117.589844 192.789062 121.699219 197.015625 C 122.855469 198.34375 124.417969 199.617188 124.476562 201.527344 C 125.460938 213.683594 124.648438 225.894531 124.765625 238.046875 Z M 117.589844 170.160156 C 118.746094 170.21875 119.960938 170.277344 121.117188 170.335938 C 121.117188 171.261719 121.175781 172.1875 121.175781 173.113281 C 120.078125 173.460938 118.746094 173.808594 117.820312 172.9375 C 116.835938 172.359375 117.300781 171.085938 117.589844 170.160156 Z M 113.015625 169.582031 C 112.957031 166.285156 112.785156 162.925781 112.957031 159.570312 C 112.902344 158.585938 114.289062 159.050781 114.867188 158.875 C 115.738281 158.933594 116.894531 158.585938 117.53125 159.339844 C 117.9375 162.753906 117.644531 166.167969 117.589844 169.523438 C 116.082031 169.582031 114.519531 169.582031 113.015625 169.582031 Z M 131.128906 240.824219 C 131.246094 241.632812 130.898438 242.269531 130.203125 242.675781 C 129.972656 226.066406 130.261719 209.457031 130.203125 192.90625 C 128.238281 192.964844 126.210938 192.964844 124.242188 192.847656 C 120.078125 187.871094 115.445312 183.414062 111.222656 178.496094 C 109.890625 176.992188 108.503906 175.253906 108.675781 173.113281 C 108.847656 166.804688 108.675781 160.554688 108.847656 154.246094 C 108.847656 153.492188 108.90625 152.742188 108.90625 152.046875 C 109.832031 152.046875 110.757812 152.046875 111.683594 152.046875 C 111.570312 156.621094 111.859375 161.25 111.628906 165.820312 C 111.683594 168.078125 111.570312 170.394531 111.917969 172.59375 C 112.554688 174.15625 113.941406 175.136719 115.042969 176.355469 C 118.6875 180.230469 122.566406 183.933594 125.804688 188.160156 C 126.847656 189.492188 128.816406 188.738281 130.261719 188.96875 C 130.492188 183.414062 129.914062 177.800781 130.667969 172.304688 C 130.785156 177.800781 130.667969 183.355469 130.726562 188.855469 C 133.503906 188.855469 136.28125 188.855469 139.117188 188.855469 C 141.027344 188.738281 142.9375 188.679688 144.847656 188.679688 C 144.324219 186.539062 143.804688 184.226562 144.613281 182.140625 C 144.960938 183.933594 144.5 185.902344 145.425781 187.523438 C 145.367188 187.871094 145.25 188.160156 145.195312 188.507812 C 147.335938 188.679688 146.292969 191.34375 146.699219 192.789062 C 141.433594 192.964844 136.109375 192.847656 130.839844 192.789062 C 131.015625 208.820312 131.1875 224.851562 131.128906 240.824219 Z M 134.082031 266.578125 C 132.984375 266.519531 132.171875 265.765625 131.304688 265.1875 C 131.710938 265.074219 132.460938 264.898438 132.808594 264.785156 C 135.875 264.726562 138.886719 264.898438 141.953125 264.726562 C 141.953125 265.363281 142.011719 266 142.011719 266.695312 C 139.347656 266.578125 136.6875 266.695312 134.082031 266.578125 Z M 142.125 252.28125 C 141.664062 249.621094 141.375 246.785156 142.707031 244.296875 C 145.195312 244.066406 147.683594 244.238281 150.113281 244.46875 C 149.246094 244.703125 148.320312 244.992188 147.796875 245.742188 C 148.898438 245.917969 150.171875 245.511719 151.210938 246.03125 C 152.253906 248.058594 151.90625 250.894531 150.230469 252.457031 C 147.683594 253.324219 144.671875 253.210938 142.125 252.28125 Z M 142.125 240.707031 C 142.125 240.304688 142.183594 239.550781 142.183594 239.144531 C 145.019531 238.972656 147.914062 238.972656 150.75 239.089844 C 150.691406 239.492188 150.632812 240.304688 150.632812 240.707031 C 147.796875 240.765625 144.960938 240.824219 142.125 240.707031 Z M 145.367188 253.382812 L 146.351562 253.613281 C 147.394531 265.246094 146.292969 276.996094 146.988281 288.628906 C 146.640625 288.683594 145.886719 288.800781 145.484375 288.917969 C 145.367188 288.570312 145.136719 287.992188 145.019531 287.644531 C 145.25 276.242188 145.195312 264.839844 145.367188 253.382812 Z M 171.003906 251.125 C 170.367188 252.863281 168.632812 253.613281 167.242188 254.597656 C 167.128906 263.105469 167.417969 271.613281 167.417969 280.121094 C 167.707031 283.535156 167.707031 286.949219 167.765625 290.363281 C 167.648438 294.878906 167.820312 299.390625 167.707031 303.90625 C 166.085938 303.90625 164.523438 303.90625 162.902344 303.90625 C 162.789062 307.726562 163.019531 311.601562 162.902344 315.421875 C 162.441406 315.539062 161.917969 315.597656 161.457031 315.710938 C 161.398438 315.539062 161.339844 315.191406 161.28125 315.015625 C 161.28125 311.3125 161.339844 307.609375 161.28125 303.90625 C 155.957031 303.90625 150.574219 303.90625 145.25 303.90625 C 145.25 299.160156 145.136719 294.300781 145.425781 289.609375 C 145.886719 289.207031 146.351562 289.265625 146.871094 289.726562 C 146.582031 291.925781 146.640625 294.242188 146.640625 296.441406 C 151.386719 296.382812 156.132812 296.324219 160.933594 296.5 C 156.191406 297.078125 151.386719 296.554688 146.640625 296.671875 C 146.640625 298.523438 146.640625 300.433594 146.640625 302.285156 C 151.5 302.226562 156.363281 302.285156 161.222656 302.167969 C 161.167969 296.84375 161.339844 291.464844 161.109375 286.140625 C 161.222656 274.96875 160.933594 263.800781 161.050781 252.628906 C 160.992188 247.769531 161.109375 242.90625 160.820312 238.046875 C 160.066406 236.832031 158.621094 236.136719 157.636719 235.035156 C 156.59375 234.226562 155.785156 232.722656 154.28125 232.835938 C 148.320312 232.78125 142.414062 232.953125 136.453125 232.835938 C 136.398438 232.433594 136.28125 231.621094 136.164062 231.21875 C 142.761719 231.273438 149.359375 231.273438 155.957031 231.042969 C 157.867188 233.128906 160.183594 234.863281 162.207031 236.832031 C 162.730469 239.957031 162.554688 243.253906 162.152344 246.4375 L 162.671875 246.84375 C 163.714844 245.859375 164.871094 244.816406 166.375 244.757812 C 169.558594 244.585938 172.335938 248.230469 171.003906 251.125 Z M 148.492188 198.054688 L 149.011719 198 C 148.839844 202.976562 149.011719 208.011719 148.957031 212.988281 L 148.492188 212.929688 C 148.609375 208.011719 148.492188 203.035156 148.492188 198.054688 Z M 170.832031 204.191406 C 170.945312 202.164062 170.945312 200.199219 170.832031 198.171875 C 170.945312 198.171875 171.238281 198.113281 171.351562 198.054688 C 171.292969 200.082031 171.238281 202.164062 171.121094 204.191406 C 174.128906 204.015625 173.898438 208.820312 171.003906 208.53125 C 167.878906 209.109375 167.476562 203.554688 170.832031 204.191406 Z M 169.730469 197.707031 C 169.789062 199.734375 170.019531 201.816406 169.558594 203.84375 C 169.441406 201.875 168.574219 199.445312 169.730469 197.707031 Z M 173.320312 213.625 C 173.4375 215.589844 170.65625 216.75 169.269531 215.300781 C 168.113281 214.609375 168.457031 212.8125 169.382812 212.0625 C 170.890625 211.25 172.972656 211.886719 173.320312 213.625 Z M 170.078125 219.0625 C 171.875 218.136719 173.839844 220.453125 173.144531 222.1875 C 172.164062 223.984375 168.980469 223.925781 168.574219 221.726562 C 168.113281 220.570312 169.152344 219.527344 170.078125 219.0625 Z M 172.566406 288.105469 C 173.203125 287.933594 173.78125 287.757812 174.417969 287.585938 C 174.417969 288.453125 174.417969 289.265625 174.476562 290.132812 C 173.667969 289.902344 172.914062 289.667969 172.105469 289.4375 C 172.21875 289.148438 172.453125 288.453125 172.566406 288.105469 Z M 174.535156 297.480469 C 174.074219 297.480469 173.089844 297.539062 172.625 297.539062 C 172.511719 296.730469 172.566406 295.917969 172.742188 295.109375 C 173.492188 295.167969 174.246094 295.226562 175.054688 295.28125 C 174.882812 296.035156 174.707031 296.789062 174.535156 297.480469 Z M 178.066406 297.25 C 177.371094 296.671875 177.890625 295.863281 178.007812 295.167969 C 179.28125 295.339844 180.613281 295.863281 180.785156 297.308594 C 179.859375 297.308594 178.933594 297.308594 178.066406 297.25 Z M 177.777344 289.4375 C 178.007812 288.859375 178.238281 288.222656 178.472656 287.644531 C 178.992188 287.757812 179.511719 287.933594 180.035156 288.046875 C 180.089844 288.511719 180.148438 289.4375 180.148438 289.957031 C 179.453125 289.957031 178.703125 290.015625 178.007812 290.074219 Z M 183.101562 289.957031 C 183.332031 289.089844 183.042969 287.703125 184.316406 287.585938 C 185.648438 287.121094 185.648438 289.03125 185.9375 289.84375 C 184.953125 289.957031 184.027344 289.957031 183.101562 289.957031 Z M 199.941406 260.441406 C 192.648438 260.5 185.300781 260.269531 178.007812 260.617188 C 178.066406 257.027344 178.066406 253.382812 178.066406 249.792969 C 176.214844 249.792969 174.417969 249.851562 172.566406 249.792969 C 174.074219 248.695312 176.273438 249.503906 178.007812 249.214844 C 177.949219 244.355469 177.949219 239.492188 178.066406 234.574219 C 176.097656 233.9375 173.78125 232.722656 173.667969 230.347656 C 173.089844 228.148438 174.824219 226.472656 176.386719 225.3125 C 179.28125 223.578125 183.503906 226.472656 183.214844 229.769531 C 183.390625 232.316406 181.074219 234.054688 178.875 234.632812 C 179.105469 239.667969 178.875 244.757812 178.992188 249.792969 C 179.917969 249.792969 180.726562 249.503906 181.132812 248.636719 C 181.652344 247.480469 183.160156 247.59375 184.199219 247.941406 C 185.703125 248.753906 184.777344 251.53125 183.101562 251.472656 C 181.941406 251.648438 181.363281 250.429688 180.667969 249.738281 C 180.207031 249.738281 179.28125 249.792969 178.816406 249.851562 C 178.703125 253.210938 178.703125 256.566406 178.816406 259.921875 C 185.589844 259.808594 192.359375 259.808594 199.132812 259.863281 C 199.015625 246.207031 199.015625 232.546875 199.015625 218.890625 L 199.824219 218.832031 L 199.824219 219.410156 C 199.941406 233.070312 199.824219 246.726562 199.941406 260.441406 Z M 186.628906 249.503906 C 186.457031 248.695312 187.324219 248.230469 187.902344 247.828125 C 189.121094 246.957031 190.972656 247.886719 190.855469 249.449219 C 191.144531 252.050781 186.628906 251.820312 186.628906 249.503906 Z M 192.648438 163.851562 C 192.648438 164.199219 192.765625 164.835938 192.765625 165.183594 L 191.898438 165.183594 C 191.957031 164.488281 191.957031 163.796875 192.011719 163.160156 C 193.054688 163.214844 194.097656 163.160156 195.195312 163.042969 C 195.253906 163.738281 195.253906 164.433594 195.3125 165.183594 C 194.558594 165.183594 193.863281 165.183594 193.113281 165.183594 C 193.171875 164.894531 193.285156 164.257812 193.402344 163.96875 C 193.171875 163.910156 192.824219 163.851562 192.648438 163.851562 Z M 191.78125 159.800781 C 191.78125 158.820312 191.78125 157.890625 191.78125 156.910156 C 192.9375 156.910156 194.152344 156.910156 195.3125 156.851562 C 195.3125 157.890625 195.3125 158.875 195.3125 159.917969 C 194.152344 159.859375 192.9375 159.800781 191.78125 159.800781 Z M 191.609375 152.859375 C 191.609375 151.757812 191.664062 150.660156 191.839844 149.5 C 193.171875 149.558594 194.5 149.558594 195.832031 149.617188 C 195.949219 150.714844 196.007812 151.816406 196.007812 152.914062 C 194.5 152.972656 193.054688 152.914062 191.609375 152.859375 Z M 220.195312 205.578125 L 220.253906 206.042969 C 213.890625 205.867188 207.464844 206.214844 201.042969 205.867188 C 201.332031 205.8125 201.96875 205.636719 202.257812 205.578125 C 208.21875 205.578125 214.179688 205.636719 220.195312 205.578125 Z M 201.734375 123.921875 C 201.734375 124.671875 201.734375 125.425781 201.734375 126.121094 C 200.925781 126.179688 200.171875 126.234375 199.421875 126.234375 C 199.421875 125.425781 199.363281 124.617188 199.363281 123.804688 C 200.113281 123.632812 200.925781 123.746094 201.734375 123.921875 Z M 199.363281 130.34375 C 200.113281 129.996094 200.925781 130.230469 201.734375 130.230469 C 201.734375 131.039062 201.679688 131.792969 201.679688 132.601562 C 200.867188 132.601562 200.113281 132.601562 199.304688 132.601562 C 199.304688 131.792969 199.015625 130.980469 199.363281 130.34375 Z M 199.421875 136.246094 C 200.113281 136.421875 200.984375 136.191406 201.621094 136.59375 C 202.023438 137.289062 201.679688 138.101562 201.679688 138.792969 C 199.941406 139.664062 198.550781 137.808594 199.421875 136.246094 Z M 199.074219 205.117188 C 199.246094 204.941406 199.652344 204.652344 199.882812 204.480469 C 200.171875 208.125 200.113281 211.828125 199.941406 215.476562 C 199.710938 215.359375 199.304688 215.128906 199.074219 215.011719 C 199.015625 211.714844 199.132812 208.414062 199.074219 205.117188 Z M 181.886719 125.253906 L 182.347656 125.832031 C 183.332031 124.617188 184.199219 122.707031 186.050781 122.820312 C 188.484375 122.820312 190.972656 122.648438 193.34375 122.9375 C 194.617188 124.09375 196.179688 125.195312 196.875 126.816406 C 196.988281 129.707031 197.105469 132.601562 196.875 135.496094 C 196.238281 136.828125 195.082031 137.867188 194.097656 138.96875 C 193.574219 139.71875 192.589844 139.488281 191.839844 139.546875 C 189.523438 139.546875 187.210938 139.664062 184.953125 139.429688 C 183.851562 138.214844 182.636719 137.117188 181.597656 135.84375 C 180.613281 133.527344 181.363281 130.921875 181.074219 128.550781 C 180.667969 127.277344 182.058594 126.46875 181.886719 125.253906 Z M 185.761719 158.933594 C 185.414062 160.671875 182.984375 161.25 181.710938 160.089844 C 180.84375 159.050781 181.015625 157.253906 182.234375 156.503906 C 183.96875 155.289062 186.050781 157.023438 185.761719 158.933594 Z M 189.640625 180.695312 C 189.582031 187.40625 189.757812 194.121094 189.464844 200.835938 C 189.292969 203.035156 189.929688 205.347656 189.121094 207.488281 C 189.003906 198.691406 189.121094 189.953125 189.0625 181.15625 C 184.953125 181.097656 180.84375 181.332031 176.734375 181.042969 C 176.445312 178.03125 176.734375 174.964844 176.964844 171.957031 L 177.253906 171.550781 C 177.199219 174.617188 177.140625 177.628906 177.140625 180.695312 C 181.304688 180.867188 185.472656 180.695312 189.640625 180.695312 Z M 177.949219 123.34375 C 178.875 123.921875 178.875 125.078125 179.050781 126.0625 C 178.125 126.003906 176.851562 126.582031 176.214844 125.597656 C 175.578125 124.5 176.792969 123.054688 177.949219 123.34375 Z M 179.050781 131.847656 C 178.179688 132.660156 177.140625 132.371094 176.15625 131.90625 C 175.808594 130.460938 176.964844 129.128906 178.414062 129.824219 C 178.644531 130.519531 178.816406 131.214844 179.050781 131.847656 Z M 176.097656 136.941406 C 176.386719 135.207031 179.742188 136.015625 178.933594 137.695312 C 178.761719 138.738281 177.835938 139.027344 176.851562 139.082031 C 176.5625 138.390625 175.636719 137.753906 176.097656 136.941406 Z M 162.960938 108.351562 C 163.367188 108.351562 164.117188 108.351562 164.464844 108.410156 C 164.695312 111.074219 164.753906 113.734375 164.582031 116.398438 C 164.117188 116.398438 163.25 116.398438 162.84375 116.398438 C 162.730469 113.734375 162.554688 111.015625 162.960938 108.351562 Z M 154.570312 110.898438 C 155.554688 110.839844 156.480469 110.785156 157.460938 110.726562 C 157.40625 112.347656 157.460938 114.023438 157.578125 115.644531 C 157.230469 115.644531 156.59375 115.644531 156.246094 115.644531 C 156.191406 114.082031 156.132812 112.519531 155.667969 111.074219 C 155.554688 112.519531 155.609375 114.023438 155.667969 115.472656 C 155.378906 115.53125 154.800781 115.644531 154.511719 115.703125 C 154.570312 114.082031 154.628906 112.460938 154.570312 110.898438 Z M 158.445312 119.8125 C 157.867188 115.125 158.214844 110.4375 158.390625 105.75 C 158.214844 105.515625 157.867188 105.054688 157.695312 104.824219 C 155.84375 104.246094 155.84375 101.292969 157.578125 100.597656 C 158.390625 100.136719 159.257812 100.65625 160.066406 100.773438 C 160.472656 102.390625 160.183594 104.011719 159.835938 105.632812 L 159.605469 105.515625 C 159.835938 107.023438 159.953125 108.527344 160.183594 110.03125 C 160.644531 113.332031 159.953125 116.628906 159.953125 119.929688 C 160.878906 119.984375 161.859375 120.042969 162.789062 120.101562 C 162.960938 120.796875 162.960938 121.546875 162.902344 122.242188 C 159.894531 121.835938 156.828125 121.722656 153.816406 121.835938 C 153.757812 121.199219 153.699219 120.507812 153.699219 119.871094 C 155.320312 119.695312 156.882812 119.636719 158.445312 119.8125 Z M 158.042969 129.476562 C 157.808594 127.683594 157.867188 125.832031 157.867188 123.980469 C 157.40625 124.5 156.941406 125.078125 156.535156 125.65625 C 156.535156 124.90625 156.59375 124.210938 156.59375 123.515625 C 157.347656 123.574219 158.042969 123.574219 158.792969 123.515625 C 158.445312 125.484375 159.257812 127.742188 158.042969 129.476562 Z M 151.734375 111.363281 C 151.847656 111.363281 152.023438 111.363281 152.136719 111.363281 C 152.136719 113.039062 151.964844 114.71875 151.964844 116.398438 C 152.601562 122.761719 152.082031 129.1875 152.371094 135.554688 C 153.757812 137.464844 155.84375 138.792969 157.578125 140.300781 C 157.753906 147.011719 157.519531 153.667969 157.636719 160.382812 C 157.460938 169.292969 158.097656 178.207031 157.808594 187.117188 C 161.109375 187.234375 164.351562 187.351562 167.648438 187.351562 C 168.574219 187.117188 169.039062 187.988281 169.617188 188.507812 C 172.625 191.691406 175.867188 194.640625 179.050781 197.652344 C 179.800781 198.289062 179.453125 199.386719 179.570312 200.3125 C 179.511719 208.300781 179.628906 216.285156 179.453125 224.273438 C 177.949219 225.488281 177.71875 223.347656 177.835938 222.304688 C 177.890625 214.609375 177.71875 206.851562 177.890625 199.097656 C 175.054688 196.203125 172.046875 193.542969 169.269531 190.589844 C 168.632812 190.011719 168.054688 189.144531 167.070312 189.257812 C 163.421875 189.085938 159.777344 189.257812 156.132812 189.144531 C 156.015625 172.996094 156.074219 156.792969 156.074219 140.644531 C 156.074219 137.925781 151.792969 137.636719 151.792969 134.859375 C 151.558594 127.046875 151.792969 119.175781 151.734375 111.363281 Z M 147.625 134.859375 C 147.972656 125.367188 147.972656 115.875 148.085938 106.386719 C 148.667969 116.109375 148.085938 125.832031 148.320312 135.554688 C 148.839844 138.96875 154.335938 139.140625 153.699219 142.960938 C 153.699219 160.902344 153.875 178.898438 153.816406 196.898438 L 153.007812 196.957031 C 152.832031 178.4375 152.832031 159.917969 152.832031 141.398438 C 150.867188 139.488281 147.277344 138.15625 147.625 134.859375 Z M 149.070312 176.585938 C 149.417969 178.785156 147.625 180.578125 145.773438 181.445312 C 143.863281 182.488281 142.011719 180.808594 140.679688 179.59375 C 138.308594 177.335938 139.984375 173.171875 142.820312 172.1875 C 145.714844 171.03125 149.070312 173.632812 149.070312 176.585938 Z M 131.304688 110.378906 C 130.898438 103.144531 131.304688 95.851562 131.128906 88.617188 C 131.015625 84.046875 131.304688 79.472656 131.476562 74.84375 C 130.203125 74.382812 128.816406 73.859375 128.0625 72.644531 C 127.3125 71.546875 127.367188 70.15625 127.078125 68.882812 C 127.890625 67.609375 128.816406 66.394531 130.089844 65.527344 C 130.726562 65.410156 131.363281 65.238281 132 65.121094 C 131.652344 59.566406 131.882812 54.011719 131.941406 48.453125 C 132.519531 53.894531 131.882812 59.449219 132.230469 64.949219 C 134.199219 65.410156 136.453125 66.570312 136.800781 68.769531 C 138.710938 69.808594 140.910156 69.867188 142.996094 69.289062 C 142.996094 69.40625 143.050781 69.578125 143.109375 69.695312 C 141.085938 69.867188 139.058594 69.808594 137.089844 69.808594 C 137.496094 72.53125 134.835938 74.035156 132.808594 75.191406 C 133.214844 86.417969 133.15625 97.648438 133.503906 108.816406 C 136.859375 108.699219 140.160156 108.757812 143.515625 108.816406 C 143.574219 109.277344 143.632812 110.148438 143.6875 110.550781 C 139.464844 110.609375 135.355469 110.839844 131.304688 110.378906 Z M 158.96875 68.363281 C 159.429688 69 159.71875 69.695312 159.894531 70.503906 C 160.125 70.503906 160.644531 70.503906 160.878906 70.503906 C 160.878906 69.636719 160.933594 68.710938 160.992188 67.84375 C 162.554688 68.304688 162.382812 70.042969 161.804688 71.199219 C 160.933594 71.199219 159.953125 71.546875 159.140625 70.910156 C 158.851562 70.097656 158.734375 69.230469 158.96875 68.363281 Z M 156.304688 68.480469 C 156.363281 69.347656 156.132812 70.15625 155.898438 70.96875 C 155.03125 70.96875 154.164062 70.96875 153.238281 70.96875 C 153.238281 69.925781 153.179688 68.941406 153.179688 67.957031 C 154.222656 68.132812 155.554688 67.667969 156.304688 68.480469 Z M 198.957031 25.828125 C 198.378906 27.851562 195.082031 28.027344 194.269531 26.117188 C 193.808594 24.785156 194.097656 22.875 195.660156 22.410156 C 197.625 21.3125 200.171875 23.859375 198.957031 25.828125 Z M 284.320312 58.464844 C 284.203125 60.085938 282.292969 61.300781 280.847656 60.433594 C 278.824219 59.625 279.226562 56.382812 281.253906 55.863281 C 282.816406 55.398438 284.609375 56.847656 284.320312 58.464844 Z M 334.265625 133.238281 C 332.761719 132.777344 332.875 131.039062 332.992188 129.824219 C 333.453125 129.359375 333.859375 128.957031 334.324219 128.492188 C 335.710938 128.261719 337.5625 128.550781 337.792969 130.230469 C 338.605469 132.3125 336.175781 134.28125 334.265625 133.238281 Z M 334.265625 133.238281 " fill-opacity="1" fill-rule="nonzero"/><path fill="#d9d9d9" d="M 210.359375 135.265625 C 214.699219 135.148438 219.097656 135.148438 223.4375 135.03125 C 225.464844 135.148438 227.546875 135.089844 229.574219 135.207031 C 228.242188 133.585938 227.140625 131.734375 227.027344 129.59375 C 226.851562 125.945312 226.96875 122.300781 226.910156 118.65625 C 225.984375 118.421875 224.59375 118.191406 224.769531 116.859375 C 224.363281 115.355469 225.8125 114.601562 226.851562 113.910156 C 226.851562 112.636719 226.910156 111.421875 226.910156 110.148438 L 226.738281 109.222656 C 222.628906 109.222656 218.519531 108.933594 214.410156 108.875 C 214.003906 110.839844 213.078125 112.808594 211.054688 113.503906 L 211.054688 113.675781 C 207.695312 114.660156 204.976562 111.59375 204.746094 108.46875 C 203.472656 108.527344 202.199219 108.585938 200.925781 108.585938 C 200.984375 109.914062 200.984375 111.1875 201.042969 112.519531 L 200.347656 112.636719 C 200.289062 111.824219 200.230469 111.015625 200.113281 110.261719 C 200.058594 110.4375 199.941406 110.785156 199.824219 110.957031 C 199.824219 110.378906 199.882812 109.335938 199.941406 108.757812 C 198.667969 108.757812 197.453125 108.757812 196.179688 108.757812 C 196.121094 111.824219 196.007812 114.835938 196.121094 117.902344 C 200.578125 117.84375 205.035156 117.84375 209.433594 117.785156 C 209.433594 116.570312 209.433594 115.355469 209.433594 114.140625 C 209.722656 114.488281 209.953125 114.894531 210.128906 115.355469 C 210.183594 115.933594 210.300781 117.148438 210.300781 117.785156 L 211.054688 117.84375 C 213.773438 117.785156 216.78125 118.074219 219.097656 116.28125 C 218.34375 116.976562 217.765625 118.132812 216.667969 118.191406 C 214.46875 118.308594 212.210938 118.25 210.011719 118.363281 L 210.300781 118.710938 C 210.183594 124.382812 210.183594 129.824219 210.359375 135.265625 Z M 210.359375 135.265625 " fill-opacity="1" fill-rule="nonzero"/><path fill="#d9d9d9" d="M 192.589844 134.800781 C 192.589844 132.140625 192.589844 129.417969 192.476562 126.757812 C 190.160156 126.699219 187.847656 126.699219 185.472656 126.699219 C 185.53125 129.304688 185.472656 131.90625 185.472656 134.511719 C 187.847656 134.570312 190.21875 134.453125 192.589844 134.800781 Z M 186.515625 127.625 C 188.25 127.625 189.929688 127.625 191.664062 127.683594 C 191.609375 129.707031 191.550781 131.734375 191.609375 133.816406 C 189.929688 133.757812 188.195312 133.703125 186.515625 133.757812 C 186.574219 131.675781 186.628906 129.652344 186.515625 127.625 Z M 186.515625 127.625 " fill-opacity="1" fill-rule="nonzero"/><path fill="#d9d9d9" d="M 281.195312 148.921875 C 283.453125 147.648438 285.246094 145.625 286.925781 143.65625 C 288.082031 142.265625 288.890625 140.644531 289.179688 138.910156 C 286.402344 141.746094 282.585938 143.078125 279.75 145.855469 C 277.664062 148.515625 277.433594 152.164062 277.605469 155.402344 L 278.242188 155.867188 C 278.1875 153.378906 278.648438 150.136719 281.195312 148.921875 Z M 281.195312 148.921875 " fill-opacity="1" fill-rule="nonzero"/><path fill="#d9d9d9" d="M 281.023438 152.394531 C 280.5 152.625 279.980469 152.859375 279.402344 153.089844 C 279.167969 153.609375 278.9375 154.128906 278.707031 154.652344 C 278.878906 155.519531 278.996094 156.445312 279.113281 157.3125 L 278.878906 157.3125 C 278.765625 157.023438 278.589844 156.386719 278.476562 156.097656 L 277.722656 155.691406 C 278.1875 157.429688 278.300781 159.339844 279.34375 160.84375 C 279.980469 158.066406 280.558594 155.230469 281.023438 152.394531 Z M 281.023438 152.394531 " fill-opacity="1" fill-rule="nonzero"/><path fill="#d9d9d9" d="M 147.972656 248.984375 C 147.972656 249.214844 147.914062 249.738281 147.914062 250.027344 C 149.011719 250.027344 150.113281 250.027344 151.269531 249.96875 C 150.632812 248.753906 149.011719 249.273438 147.972656 248.984375 Z M 147.972656 248.984375 " fill-opacity="1" fill-rule="nonzero"/><path fill="#d9d9d9" d="M 145.308594 340.078125 C 142.878906 338.746094 139.871094 339.671875 138.132812 341.640625 C 141.199219 342.621094 144.269531 343.605469 147.449219 344.128906 C 147.105469 342.679688 146.757812 340.886719 145.308594 340.078125 Z M 145.308594 340.078125 " fill-opacity="1" fill-rule="nonzero"/><g clip-path="url(#c4c38f5853)"><path fill="#d9d9d9" d="M 342.539062 90.644531 C 331.082031 72.703125 316.613281 56.730469 299.886719 43.59375 C 291.613281 37.226562 282.929688 31.152344 273.382812 26.636719 C 274.308594 27.910156 275.929688 28.371094 277.144531 29.242188 C 287.328125 35.257812 296.996094 42.089844 306.082031 49.613281 C 315.109375 57.308594 323.210938 66.046875 330.617188 75.308594 C 345.492188 94.40625 355.910156 116.800781 362.160156 140.183594 C 362.449219 140.125 363.027344 140.066406 363.316406 140.007812 L 363.546875 139.546875 C 359.4375 122.183594 352.148438 105.632812 342.539062 90.644531 Z M 342.539062 90.644531 " fill-opacity="1" fill-rule="nonzero"/></g><path fill="#d9d9d9" d="M 250.582031 123.167969 C 248.726562 123.285156 247.398438 125.019531 247.28125 126.757812 C 247.457031 129.015625 248.554688 131.386719 250.8125 132.195312 C 252.664062 132.195312 254.398438 131.097656 255.558594 129.707031 C 256.945312 127.855469 256.195312 125.195312 254.632812 123.746094 C 253.53125 122.648438 251.96875 122.9375 250.582031 123.167969 Z M 254.6875 130.054688 C 253.707031 131.214844 252.144531 131.214844 250.8125 131.214844 C 249.191406 130.054688 247.917969 128.261719 248.324219 126.234375 C 248.960938 124.617188 250.582031 123.804688 252.027344 123.109375 C 255.210938 123.109375 257.234375 127.855469 254.6875 130.054688 Z M 254.6875 130.054688 " fill-opacity="1" fill-rule="nonzero"/><path fill="#d9d9d9" d="M 135.296875 356.28125 C 133.273438 355.816406 131.363281 354.601562 129.277344 354.71875 C 129.277344 355.007812 129.222656 355.585938 129.222656 355.875 C 135.007812 358.132812 141.144531 359.523438 147.21875 361.027344 C 167.128906 365.484375 187.847656 366.988281 208.042969 364.035156 C 208.390625 363.976562 209.144531 363.863281 209.492188 363.804688 C 211.226562 363.339844 212.964844 363.050781 214.757812 362.9375 C 214.699219 362.703125 214.640625 362.300781 214.582031 362.066406 C 188.195312 366.0625 160.933594 363.628906 135.296875 356.28125 Z M 135.296875 356.28125 " fill-opacity="1" fill-rule="nonzero"/><g clip-path="url(#0a991a178b)"><path fill="#d9d9d9" d="M 129.394531 358.191406 C 128.816406 357.84375 128.351562 358.015625 128.003906 358.597656 C 127.660156 359.230469 127.367188 359.867188 127.023438 360.5625 C 131.824219 362.472656 136.859375 363.804688 141.894531 364.960938 C 147.394531 365.425781 152.71875 367.101562 158.214844 367.449219 C 161.457031 368.027344 164.8125 367.855469 168.054688 368.433594 C 173.492188 368.492188 178.933594 368.609375 184.316406 368.433594 C 184.605469 368.261719 185.183594 367.855469 185.53125 367.683594 C 181.539062 367.507812 177.488281 367.101562 173.492188 367.101562 C 158.5625 365.65625 143.746094 362.703125 129.394531 358.191406 Z M 129.394531 358.191406 " fill-opacity="1" fill-rule="nonzero"/></g><path fill="#d9d9d9" d="M 212.210938 181.273438 C 212.210938 182.082031 212.152344 182.894531 212.152344 183.703125 C 214.003906 183.761719 215.855469 183.820312 217.707031 183.878906 C 217.707031 183.007812 217.652344 182.140625 217.59375 181.332031 C 215.742188 181.273438 213.945312 181.214844 212.210938 181.273438 Z M 212.210938 181.273438 " fill-opacity="1" fill-rule="nonzero"/><path fill="#d9d9d9" d="M 163.308594 252.863281 L 162.613281 252.457031 C 163.019531 260.152344 162.730469 267.851562 162.902344 275.546875 C 163.132812 282.378906 163.078125 289.265625 163.078125 296.09375 L 163.078125 296.265625 C 164.117188 296.382812 165.160156 296.5 166.144531 296.789062 C 165.101562 296.902344 164.003906 297.019531 162.960938 297.078125 C 162.960938 298.871094 162.960938 300.605469 162.960938 302.402344 C 164.117188 302.460938 165.332031 302.515625 166.492188 302.632812 C 166.664062 299.101562 166.664062 295.628906 166.316406 292.101562 C 166.722656 280.0625 166.605469 267.964844 166.78125 255.929688 C 167.300781 253.730469 164.464844 253.902344 163.308594 252.863281 Z M 163.308594 252.863281 " fill-opacity="1" fill-rule="nonzero"/><path fill="#d9d9d9" d="M 269.910156 342.042969 C 278.765625 337.585938 286.925781 331.800781 294.851562 325.898438 C 299.019531 322.597656 303.246094 319.359375 306.890625 315.480469 C 296.070312 325.375 284.03125 334 271.125 340.828125 C 270.488281 341.117188 270.140625 341.523438 269.910156 342.042969 Z M 269.910156 342.042969 " fill-opacity="1" fill-rule="nonzero"/><path fill="#d9d9d9" d="M 87.496094 334.058594 C 86.800781 333.132812 86.277344 334.460938 85.875 334.925781 C 86.164062 334.695312 86.742188 334.171875 86.972656 333.882812 C 87.839844 334.695312 88.710938 335.5625 89.75 336.199219 C 93.398438 338.109375 96.523438 340.945312 100.34375 342.566406 C 98.316406 341.175781 96.058594 340.078125 94.09375 338.628906 C 91.949219 337.066406 89.402344 336.023438 87.496094 334.058594 Z M 87.496094 334.058594 " fill-opacity="1" fill-rule="nonzero"/><path fill="#d9d9d9" d="M 105.085938 345.457031 C 104.160156 344.820312 103.179688 344.359375 102.195312 343.894531 C 103.003906 344.648438 103.929688 345.226562 105.085938 345.457031 Z M 105.085938 345.457031 " fill-opacity="1" fill-rule="nonzero"/></svg>